<mxfile host="Electron" modified="2024-05-16T17:06:09.123Z" agent="Mozilla/5.0 (Windows NT 10.0; Win64; x64) AppleWebKit/537.36 (KHTML, like Gecko) draw.io/23.1.5 Chrome/120.0.6099.109 Electron/28.1.0 Safari/537.36" etag="avXor524UKkLcyb4OOmL" version="23.1.5" type="device">
  <diagram name="Page-1" id="vHC8sGFKOIkiMizM-Zrc">
    <mxGraphModel dx="1173" dy="709" grid="1" gridSize="10" guides="1" tooltips="1" connect="1" arrows="1" fold="1" page="1" pageScale="1" pageWidth="827" pageHeight="1169" math="0" shadow="0">
      <root>
        <mxCell id="0" />
        <mxCell id="1" parent="0" />
        <mxCell id="IydoNu0H1wuZNPbPod-j-7" value="&lt;font style=&quot;font-size: 14px;&quot;&gt;Sơ đồ 2&lt;/font&gt;" style="swimlane;whiteSpace=wrap;html=1;startSize=30;dashed=1;dashPattern=8 8;align=center;" vertex="1" parent="1">
          <mxGeometry x="400" y="1202" width="380" height="948" as="geometry" />
        </mxCell>
        <mxCell id="IydoNu0H1wuZNPbPod-j-33" value="" style="group" vertex="1" connectable="0" parent="IydoNu0H1wuZNPbPod-j-7">
          <mxGeometry x="20" y="58" width="340" height="873" as="geometry" />
        </mxCell>
        <mxCell id="IydoNu0H1wuZNPbPod-j-16" value="Giá trị độ ẩm thay đổi&lt;br&gt;&amp;gt;= 2%" style="rhombus;whiteSpace=wrap;html=1;" vertex="1" parent="IydoNu0H1wuZNPbPod-j-33">
          <mxGeometry x="49.5" y="440" width="231" height="80" as="geometry" />
        </mxCell>
        <mxCell id="IydoNu0H1wuZNPbPod-j-19" value="" style="edgeStyle=orthogonalEdgeStyle;rounded=0;orthogonalLoop=1;jettySize=auto;html=1;" edge="1" parent="IydoNu0H1wuZNPbPod-j-33" source="IydoNu0H1wuZNPbPod-j-17" target="IydoNu0H1wuZNPbPod-j-16">
          <mxGeometry relative="1" as="geometry" />
        </mxCell>
        <mxCell id="IydoNu0H1wuZNPbPod-j-20" value="Sai" style="edgeLabel;html=1;align=center;verticalAlign=middle;resizable=0;points=[];" vertex="1" connectable="0" parent="IydoNu0H1wuZNPbPod-j-19">
          <mxGeometry x="-0.0587" y="-2" relative="1" as="geometry">
            <mxPoint as="offset" />
          </mxGeometry>
        </mxCell>
        <mxCell id="IydoNu0H1wuZNPbPod-j-17" value="Giá trị nhiệt độ thay đổi&lt;br&gt;&amp;gt;=&amp;nbsp;2&lt;sup&gt;o&lt;/sup&gt;C" style="rhombus;whiteSpace=wrap;html=1;" vertex="1" parent="IydoNu0H1wuZNPbPod-j-33">
          <mxGeometry x="49.5" y="300" width="231" height="80" as="geometry" />
        </mxCell>
        <mxCell id="IydoNu0H1wuZNPbPod-j-31" style="edgeStyle=orthogonalEdgeStyle;rounded=0;orthogonalLoop=1;jettySize=auto;html=1;exitX=0;exitY=0.5;exitDx=0;exitDy=0;" edge="1" parent="IydoNu0H1wuZNPbPod-j-33" source="IydoNu0H1wuZNPbPod-j-18">
          <mxGeometry relative="1" as="geometry">
            <mxPoint x="165" y="179" as="targetPoint" />
            <mxPoint x="54.5" y="620" as="sourcePoint" />
            <Array as="points">
              <mxPoint y="620" />
              <mxPoint y="179" />
            </Array>
          </mxGeometry>
        </mxCell>
        <mxCell id="IydoNu0H1wuZNPbPod-j-32" value="Sai" style="edgeLabel;html=1;align=center;verticalAlign=middle;resizable=0;points=[];" vertex="1" connectable="0" parent="IydoNu0H1wuZNPbPod-j-31">
          <mxGeometry x="-0.911" y="3" relative="1" as="geometry">
            <mxPoint x="3" y="-4" as="offset" />
          </mxGeometry>
        </mxCell>
        <mxCell id="IydoNu0H1wuZNPbPod-j-18" value="TimeTotal &amp;gt;= 5s" style="rhombus;whiteSpace=wrap;html=1;" vertex="1" parent="IydoNu0H1wuZNPbPod-j-33">
          <mxGeometry x="49.5" y="580" width="231" height="80" as="geometry" />
        </mxCell>
        <mxCell id="IydoNu0H1wuZNPbPod-j-21" value="" style="edgeStyle=orthogonalEdgeStyle;rounded=0;orthogonalLoop=1;jettySize=auto;html=1;" edge="1" parent="IydoNu0H1wuZNPbPod-j-33" source="IydoNu0H1wuZNPbPod-j-16" target="IydoNu0H1wuZNPbPod-j-18">
          <mxGeometry relative="1" as="geometry" />
        </mxCell>
        <mxCell id="IydoNu0H1wuZNPbPod-j-22" value="Sai" style="edgeLabel;html=1;align=center;verticalAlign=middle;resizable=0;points=[];" vertex="1" connectable="0" parent="IydoNu0H1wuZNPbPod-j-21">
          <mxGeometry x="-0.027" relative="1" as="geometry">
            <mxPoint as="offset" />
          </mxGeometry>
        </mxCell>
        <mxCell id="IydoNu0H1wuZNPbPod-j-10" value="- Cập nhật giá trị nhiệt độ, độ ẩm lên màn hình LCD&lt;br&gt;- Đặt lại giá trị TimeTotal về 0" style="rounded=0;whiteSpace=wrap;html=1;align=left;" vertex="1" parent="IydoNu0H1wuZNPbPod-j-33">
          <mxGeometry x="25.5" y="720" width="279" height="57" as="geometry" />
        </mxCell>
        <mxCell id="IydoNu0H1wuZNPbPod-j-25" style="edgeStyle=orthogonalEdgeStyle;rounded=0;orthogonalLoop=1;jettySize=auto;html=1;entryX=1;entryY=0.5;entryDx=0;entryDy=0;" edge="1" parent="IydoNu0H1wuZNPbPod-j-33" source="IydoNu0H1wuZNPbPod-j-16" target="IydoNu0H1wuZNPbPod-j-10">
          <mxGeometry relative="1" as="geometry">
            <Array as="points">
              <mxPoint x="340" y="480" />
              <mxPoint x="340" y="749" />
            </Array>
          </mxGeometry>
        </mxCell>
        <mxCell id="IydoNu0H1wuZNPbPod-j-36" value="Đúng" style="edgeLabel;html=1;align=center;verticalAlign=middle;resizable=0;points=[];" vertex="1" connectable="0" parent="IydoNu0H1wuZNPbPod-j-25">
          <mxGeometry x="-0.8551" y="1" relative="1" as="geometry">
            <mxPoint as="offset" />
          </mxGeometry>
        </mxCell>
        <mxCell id="IydoNu0H1wuZNPbPod-j-26" style="edgeStyle=orthogonalEdgeStyle;rounded=0;orthogonalLoop=1;jettySize=auto;html=1;entryX=1;entryY=0.5;entryDx=0;entryDy=0;" edge="1" parent="IydoNu0H1wuZNPbPod-j-33" source="IydoNu0H1wuZNPbPod-j-17" target="IydoNu0H1wuZNPbPod-j-10">
          <mxGeometry relative="1" as="geometry">
            <Array as="points">
              <mxPoint x="340" y="340" />
              <mxPoint x="340" y="749" />
            </Array>
          </mxGeometry>
        </mxCell>
        <mxCell id="IydoNu0H1wuZNPbPod-j-34" value="Đúng" style="edgeLabel;html=1;align=center;verticalAlign=middle;resizable=0;points=[];" vertex="1" connectable="0" parent="IydoNu0H1wuZNPbPod-j-26">
          <mxGeometry x="-0.8801" relative="1" as="geometry">
            <mxPoint as="offset" />
          </mxGeometry>
        </mxCell>
        <mxCell id="IydoNu0H1wuZNPbPod-j-23" value="" style="edgeStyle=orthogonalEdgeStyle;rounded=0;orthogonalLoop=1;jettySize=auto;html=1;" edge="1" parent="IydoNu0H1wuZNPbPod-j-33" source="IydoNu0H1wuZNPbPod-j-18" target="IydoNu0H1wuZNPbPod-j-10">
          <mxGeometry relative="1" as="geometry" />
        </mxCell>
        <mxCell id="IydoNu0H1wuZNPbPod-j-24" value="Đúng" style="edgeLabel;html=1;align=center;verticalAlign=middle;resizable=0;points=[];" vertex="1" connectable="0" parent="IydoNu0H1wuZNPbPod-j-23">
          <mxGeometry x="-0.0587" relative="1" as="geometry">
            <mxPoint as="offset" />
          </mxGeometry>
        </mxCell>
        <mxCell id="IydoNu0H1wuZNPbPod-j-11" value="END" style="ellipse;whiteSpace=wrap;html=1;" vertex="1" parent="IydoNu0H1wuZNPbPod-j-33">
          <mxGeometry x="110.75" y="820" width="108.5" height="53" as="geometry" />
        </mxCell>
        <mxCell id="IydoNu0H1wuZNPbPod-j-9" value="" style="edgeStyle=orthogonalEdgeStyle;rounded=0;orthogonalLoop=1;jettySize=auto;html=1;" edge="1" parent="IydoNu0H1wuZNPbPod-j-33" source="IydoNu0H1wuZNPbPod-j-10" target="IydoNu0H1wuZNPbPod-j-11">
          <mxGeometry relative="1" as="geometry" />
        </mxCell>
        <mxCell id="IydoNu0H1wuZNPbPod-j-29" value="" style="edgeStyle=orthogonalEdgeStyle;rounded=0;orthogonalLoop=1;jettySize=auto;html=1;" edge="1" parent="IydoNu0H1wuZNPbPod-j-33" source="IydoNu0H1wuZNPbPod-j-13" target="IydoNu0H1wuZNPbPod-j-17">
          <mxGeometry relative="1" as="geometry" />
        </mxCell>
        <mxCell id="IydoNu0H1wuZNPbPod-j-13" value="Tính thời gian để cập nhật dữ liệu lên màn hình LCD" style="rounded=0;whiteSpace=wrap;html=1;" vertex="1" parent="IydoNu0H1wuZNPbPod-j-33">
          <mxGeometry x="80" y="200" width="170" height="57" as="geometry" />
        </mxCell>
        <mxCell id="IydoNu0H1wuZNPbPod-j-28" value="" style="edgeStyle=orthogonalEdgeStyle;rounded=0;orthogonalLoop=1;jettySize=auto;html=1;" edge="1" parent="IydoNu0H1wuZNPbPod-j-33" source="IydoNu0H1wuZNPbPod-j-12" target="IydoNu0H1wuZNPbPod-j-13">
          <mxGeometry relative="1" as="geometry" />
        </mxCell>
        <mxCell id="IydoNu0H1wuZNPbPod-j-12" value="Lấy giá trị hiện tại của nhiệt độ, độ ẩm" style="rounded=0;whiteSpace=wrap;html=1;" vertex="1" parent="IydoNu0H1wuZNPbPod-j-33">
          <mxGeometry x="80" y="97" width="170" height="57" as="geometry" />
        </mxCell>
        <mxCell id="IydoNu0H1wuZNPbPod-j-27" value="" style="edgeStyle=orthogonalEdgeStyle;rounded=0;orthogonalLoop=1;jettySize=auto;html=1;" edge="1" parent="IydoNu0H1wuZNPbPod-j-33" source="IydoNu0H1wuZNPbPod-j-8" target="IydoNu0H1wuZNPbPod-j-12">
          <mxGeometry relative="1" as="geometry" />
        </mxCell>
        <mxCell id="IydoNu0H1wuZNPbPod-j-8" value="START" style="ellipse;whiteSpace=wrap;html=1;" vertex="1" parent="IydoNu0H1wuZNPbPod-j-33">
          <mxGeometry x="110.75" width="108.5" height="53" as="geometry" />
        </mxCell>
        <mxCell id="IydoNu0H1wuZNPbPod-j-15" value="" style="group" vertex="1" connectable="0" parent="1">
          <mxGeometry x="50" y="1202" width="270" height="588" as="geometry" />
        </mxCell>
        <mxCell id="9v5ITnaCEAP25ajlPp7t-60" value="&lt;font style=&quot;font-size: 14px;&quot;&gt;Sơ đồ 1&lt;/font&gt;" style="swimlane;whiteSpace=wrap;html=1;startSize=30;dashed=1;dashPattern=8 8;align=center;" parent="IydoNu0H1wuZNPbPod-j-15" vertex="1">
          <mxGeometry width="270" height="588" as="geometry" />
        </mxCell>
        <mxCell id="1xYAKOkJtCq9gRjPWM1_-12" value="START" style="ellipse;whiteSpace=wrap;html=1;" parent="9v5ITnaCEAP25ajlPp7t-60" vertex="1">
          <mxGeometry x="62.25" y="68" width="108.5" height="53" as="geometry" />
        </mxCell>
        <mxCell id="IydoNu0H1wuZNPbPod-j-6" value="" style="edgeStyle=orthogonalEdgeStyle;rounded=0;orthogonalLoop=1;jettySize=auto;html=1;" edge="1" parent="9v5ITnaCEAP25ajlPp7t-60" source="IydoNu0H1wuZNPbPod-j-4" target="IydoNu0H1wuZNPbPod-j-5">
          <mxGeometry relative="1" as="geometry" />
        </mxCell>
        <mxCell id="IydoNu0H1wuZNPbPod-j-4" value="- Cập nhật giá trị nhiệt độ, độ ẩm&lt;br&gt;- Đặt lại giá trị TimeTotal về 0" style="rounded=0;whiteSpace=wrap;html=1;align=left;" vertex="1" parent="9v5ITnaCEAP25ajlPp7t-60">
          <mxGeometry x="22.25" y="418" width="188.5" height="57" as="geometry" />
        </mxCell>
        <mxCell id="IydoNu0H1wuZNPbPod-j-5" value="END" style="ellipse;whiteSpace=wrap;html=1;" vertex="1" parent="9v5ITnaCEAP25ajlPp7t-60">
          <mxGeometry x="62.25" y="525" width="108.5" height="53" as="geometry" />
        </mxCell>
        <mxCell id="1xYAKOkJtCq9gRjPWM1_-11" value="Tính thời gian để cập nhật dữ liệu nhiệt độ, độ ẩm" style="rounded=0;whiteSpace=wrap;html=1;" parent="IydoNu0H1wuZNPbPod-j-15" vertex="1">
          <mxGeometry x="31.5" y="168" width="170" height="57" as="geometry" />
        </mxCell>
        <mxCell id="9v5ITnaCEAP25ajlPp7t-1" value="" style="edgeStyle=orthogonalEdgeStyle;rounded=0;orthogonalLoop=1;jettySize=auto;html=1;" parent="IydoNu0H1wuZNPbPod-j-15" source="1xYAKOkJtCq9gRjPWM1_-12" target="1xYAKOkJtCq9gRjPWM1_-11" edge="1">
          <mxGeometry relative="1" as="geometry" />
        </mxCell>
        <mxCell id="9v5ITnaCEAP25ajlPp7t-4" style="edgeStyle=orthogonalEdgeStyle;rounded=0;orthogonalLoop=1;jettySize=auto;html=1;exitX=1;exitY=0.5;exitDx=0;exitDy=0;" parent="IydoNu0H1wuZNPbPod-j-15" source="1xYAKOkJtCq9gRjPWM1_-14" edge="1">
          <mxGeometry relative="1" as="geometry">
            <mxPoint x="116.5" y="142" as="targetPoint" />
            <mxPoint x="202.5" y="307" as="sourcePoint" />
            <Array as="points">
              <mxPoint x="251.5" y="310" />
              <mxPoint x="251.5" y="142" />
            </Array>
          </mxGeometry>
        </mxCell>
        <mxCell id="9v5ITnaCEAP25ajlPp7t-5" value="Sai" style="edgeLabel;html=1;align=center;verticalAlign=middle;resizable=0;points=[];" parent="9v5ITnaCEAP25ajlPp7t-4" vertex="1" connectable="0">
          <mxGeometry x="-0.4431" y="-1" relative="1" as="geometry">
            <mxPoint x="-3" as="offset" />
          </mxGeometry>
        </mxCell>
        <mxCell id="1xYAKOkJtCq9gRjPWM1_-14" value="TimeTotal &amp;gt;= 1s" style="rhombus;whiteSpace=wrap;html=1;" parent="IydoNu0H1wuZNPbPod-j-15" vertex="1">
          <mxGeometry x="30" y="275" width="172.5" height="70" as="geometry" />
        </mxCell>
        <mxCell id="9v5ITnaCEAP25ajlPp7t-2" value="" style="edgeStyle=orthogonalEdgeStyle;rounded=0;orthogonalLoop=1;jettySize=auto;html=1;" parent="IydoNu0H1wuZNPbPod-j-15" source="1xYAKOkJtCq9gRjPWM1_-11" target="1xYAKOkJtCq9gRjPWM1_-14" edge="1">
          <mxGeometry relative="1" as="geometry" />
        </mxCell>
        <mxCell id="9v5ITnaCEAP25ajlPp7t-6" value="" style="edgeStyle=orthogonalEdgeStyle;rounded=0;orthogonalLoop=1;jettySize=auto;html=1;" parent="IydoNu0H1wuZNPbPod-j-15" source="1xYAKOkJtCq9gRjPWM1_-14" edge="1">
          <mxGeometry relative="1" as="geometry">
            <mxPoint x="116.59999999999991" y="417.0405797101448" as="targetPoint" />
          </mxGeometry>
        </mxCell>
        <mxCell id="9v5ITnaCEAP25ajlPp7t-7" value="Đúng" style="edgeLabel;html=1;align=center;verticalAlign=middle;resizable=0;points=[];" parent="9v5ITnaCEAP25ajlPp7t-6" vertex="1" connectable="0">
          <mxGeometry x="-0.0955" relative="1" as="geometry">
            <mxPoint y="-1" as="offset" />
          </mxGeometry>
        </mxCell>
        <mxCell id="IydoNu0H1wuZNPbPod-j-37" value="" style="group" vertex="1" connectable="0" parent="1">
          <mxGeometry x="150" y="200" width="490" height="485" as="geometry" />
        </mxCell>
        <mxCell id="HS3srLB-XvaPmOaS-rye-1" value="START" style="ellipse;whiteSpace=wrap;html=1;" parent="IydoNu0H1wuZNPbPod-j-37" vertex="1">
          <mxGeometry x="30" width="120" height="50" as="geometry" />
        </mxCell>
        <mxCell id="HS3srLB-XvaPmOaS-rye-2" value="Khởi tạo và cấu hình các tài nguyên cần sử dụng" style="rounded=0;whiteSpace=wrap;html=1;" parent="IydoNu0H1wuZNPbPod-j-37" vertex="1">
          <mxGeometry y="90" width="180" height="60" as="geometry" />
        </mxCell>
        <mxCell id="HS3srLB-XvaPmOaS-rye-8" value="" style="edgeStyle=orthogonalEdgeStyle;rounded=0;orthogonalLoop=1;jettySize=auto;html=1;" parent="IydoNu0H1wuZNPbPod-j-37" source="HS3srLB-XvaPmOaS-rye-1" target="HS3srLB-XvaPmOaS-rye-2" edge="1">
          <mxGeometry relative="1" as="geometry" />
        </mxCell>
        <mxCell id="EfAXBWDbnnw8O62imFto-1" style="edgeStyle=orthogonalEdgeStyle;rounded=0;orthogonalLoop=1;jettySize=auto;html=1;exitX=0.5;exitY=1;exitDx=0;exitDy=0;entryX=0.5;entryY=0;entryDx=0;entryDy=0;" parent="IydoNu0H1wuZNPbPod-j-37" source="HS3srLB-XvaPmOaS-rye-2" target="1xYAKOkJtCq9gRjPWM1_-1" edge="1">
          <mxGeometry relative="1" as="geometry">
            <mxPoint x="90" y="190" as="targetPoint" />
          </mxGeometry>
        </mxCell>
        <mxCell id="HS3srLB-XvaPmOaS-rye-7" value="Cập nhật giá trị nhiệt độ, độ ẩm&lt;br&gt;(sơ đồ 1)" style="rounded=0;whiteSpace=wrap;html=1;" parent="IydoNu0H1wuZNPbPod-j-37" vertex="1">
          <mxGeometry x="227" y="219" width="210" height="60" as="geometry" />
        </mxCell>
        <mxCell id="1xYAKOkJtCq9gRjPWM1_-3" style="edgeStyle=orthogonalEdgeStyle;rounded=0;orthogonalLoop=1;jettySize=auto;html=1;exitX=1;exitY=0.5;exitDx=0;exitDy=0;entryX=0;entryY=0.5;entryDx=0;entryDy=0;" parent="IydoNu0H1wuZNPbPod-j-37" source="1xYAKOkJtCq9gRjPWM1_-1" target="HS3srLB-XvaPmOaS-rye-7" edge="1">
          <mxGeometry relative="1" as="geometry" />
        </mxCell>
        <mxCell id="1xYAKOkJtCq9gRjPWM1_-4" value="Đúng" style="edgeLabel;html=1;align=center;verticalAlign=middle;resizable=0;points=[];" parent="1xYAKOkJtCq9gRjPWM1_-3" vertex="1" connectable="0">
          <mxGeometry x="0.0111" y="1" relative="1" as="geometry">
            <mxPoint y="-3" as="offset" />
          </mxGeometry>
        </mxCell>
        <mxCell id="1xYAKOkJtCq9gRjPWM1_-5" style="edgeStyle=orthogonalEdgeStyle;rounded=0;orthogonalLoop=1;jettySize=auto;html=1;exitX=0.5;exitY=1;exitDx=0;exitDy=0;entryX=0.5;entryY=0;entryDx=0;entryDy=0;" parent="IydoNu0H1wuZNPbPod-j-37" source="1xYAKOkJtCq9gRjPWM1_-1" edge="1">
          <mxGeometry relative="1" as="geometry">
            <mxPoint x="90" y="435" as="targetPoint" />
          </mxGeometry>
        </mxCell>
        <mxCell id="1xYAKOkJtCq9gRjPWM1_-6" value="Sai" style="edgeLabel;html=1;align=center;verticalAlign=middle;resizable=0;points=[];" parent="1xYAKOkJtCq9gRjPWM1_-5" vertex="1" connectable="0">
          <mxGeometry x="-0.1294" y="-2" relative="1" as="geometry">
            <mxPoint as="offset" />
          </mxGeometry>
        </mxCell>
        <mxCell id="1xYAKOkJtCq9gRjPWM1_-1" value="true" style="rhombus;whiteSpace=wrap;html=1;" parent="IydoNu0H1wuZNPbPod-j-37" vertex="1">
          <mxGeometry x="30" y="215" width="120" height="65" as="geometry" />
        </mxCell>
        <mxCell id="1xYAKOkJtCq9gRjPWM1_-29" value="END" style="ellipse;whiteSpace=wrap;html=1;" parent="IydoNu0H1wuZNPbPod-j-37" vertex="1">
          <mxGeometry x="30" y="435" width="120" height="50" as="geometry" />
        </mxCell>
        <mxCell id="IydoNu0H1wuZNPbPod-j-1" style="edgeStyle=orthogonalEdgeStyle;rounded=0;orthogonalLoop=1;jettySize=auto;html=1;exitX=1;exitY=0.5;exitDx=0;exitDy=0;" edge="1" parent="IydoNu0H1wuZNPbPod-j-37" source="1xYAKOkJtCq9gRjPWM1_-31">
          <mxGeometry relative="1" as="geometry">
            <mxPoint x="90" y="180" as="targetPoint" />
            <mxPoint x="450" y="365" as="sourcePoint" />
            <Array as="points">
              <mxPoint x="490" y="355" />
              <mxPoint x="490" y="180" />
            </Array>
          </mxGeometry>
        </mxCell>
        <mxCell id="1xYAKOkJtCq9gRjPWM1_-31" value="Cập nhật dữ liệu lên màn hình LCD&lt;br&gt;(sơ đồ 2)" style="rounded=0;whiteSpace=wrap;html=1;" parent="IydoNu0H1wuZNPbPod-j-37" vertex="1">
          <mxGeometry x="227" y="325" width="210" height="60" as="geometry" />
        </mxCell>
        <mxCell id="1xYAKOkJtCq9gRjPWM1_-35" value="" style="edgeStyle=orthogonalEdgeStyle;rounded=0;orthogonalLoop=1;jettySize=auto;html=1;" parent="IydoNu0H1wuZNPbPod-j-37" source="HS3srLB-XvaPmOaS-rye-7" target="1xYAKOkJtCq9gRjPWM1_-31" edge="1">
          <mxGeometry relative="1" as="geometry" />
        </mxCell>
      </root>
    </mxGraphModel>
  </diagram>
</mxfile>
